<?xml version="1.0" encoding="utf-8"?>
<!-- Generator: Adobe Illustrator 28.2.0, SVG Export Plug-In . SVG Version: 6.00 Build 0)  -->
<svg version="1.1" id="Capa_1" xmlns="http://www.w3.org/2000/svg" xmlns:xlink="http://www.w3.org/1999/xlink" x="0px" y="0px"
	 viewBox="0 0 100 100" style="enable-background:new 0 0 100 100;" xml:space="preserve">
<style type="text/css">
	.st0{fill:#D5B2AB;}
</style>
<g>
	<path class="st0" d="M92.25,23.44c-0.11,0.39-0.17,0.8-0.35,1.16c-0.56,1.12-0.96,2.41-1.78,3.29c-2.21,2.37-4.62,4.55-6.88,6.75
		c-5.91-5.92-11.93-11.94-18-18.01c1.18-1.18,2.47-2.46,3.75-3.73c0.8-0.8,1.59-1.6,2.39-2.39C72.9,9,74.71,8.12,76.85,7.9
		c0.19-0.02,0.37-0.1,0.55-0.15c0.33,0,0.66,0,0.99,0c0.16,0.04,0.31,0.12,0.47,0.13c2.37,0.21,4.33,1.25,5.98,2.95
		c1.49,1.54,3.02,3.04,4.54,4.54c1.13,1.12,1.98,2.41,2.46,3.93c0.16,0.49,0.28,0.99,0.42,1.49C92.25,21.68,92.25,22.56,92.25,23.44
		z"/>
	<path class="st0" d="M59.74,21.84c6.2,6.2,12.21,12.21,18.26,18.26c-0.17,0.18-0.37,0.4-0.58,0.61
		C62.29,55.84,47.16,70.98,32.01,86.09c-0.5,0.49-1.19,0.91-1.87,1.08c-6.64,1.7-13.29,3.35-19.95,5c-1.58,0.39-2.76-0.77-2.37-2.35
		c1.68-6.79,3.36-13.57,5.09-20.35c0.13-0.52,0.53-1.02,0.92-1.42c15.12-15.15,30.25-30.28,45.38-45.42
		C59.44,22.41,59.58,22.09,59.74,21.84z"/>
</g>
</svg>
