<?xml version="1.0" encoding="utf-8"?>
<!-- Generator: Adobe Illustrator 28.2.0, SVG Export Plug-In . SVG Version: 6.00 Build 0)  -->
<svg version="1.1" id="Capa_1" xmlns="http://www.w3.org/2000/svg" xmlns:xlink="http://www.w3.org/1999/xlink" x="0px" y="0px"
	 viewBox="0 0 100 100" style="enable-background:new 0 0 100 100;" xml:space="preserve">
<style type="text/css">
	.st0{fill:#D5B2AB;}
</style>
<path class="st0" d="M70.34,91.93c-14.12,0-28.24,0-42.36,0c-0.17-0.06-0.35-0.14-0.53-0.18c-3.19-0.86-5.24-2.88-5.94-6.11
	c-0.27-1.24-0.22-2.56-0.29-3.84c-0.37-7.44-0.74-14.87-1.1-22.31c-0.32-6.67-0.63-13.34-0.96-20.01c-0.06-1.17,0.16-1.43,1.3-1.43
	c19.13,0,38.25,0,57.38,0c1.12,0,1.36,0.26,1.31,1.35c-0.37,7.38-0.74,14.76-1.09,22.14c-0.36,7.46-0.68,14.93-1.03,22.39
	c-0.17,3.52-1.78,6.08-5.08,7.47C71.44,91.63,70.88,91.76,70.34,91.93z M33.4,61.71c0,2.57,0,5.14,0,7.71
	c0,3.06-0.02,6.13,0.01,9.19c0.01,1.98,1.73,3.25,3.5,2.63c1.09-0.38,1.75-1.38,1.75-2.7c0-11.24,0-22.49,0-33.73
	c0-0.14,0-0.27-0.02-0.41c-0.22-1.87-2.1-2.95-3.75-2.14c-1.11,0.55-1.5,1.51-1.5,2.7C33.4,50.55,33.4,56.13,33.4,61.71z
	 M51.79,61.66c0-3.56,0-7.11,0-10.67c0-2.08,0.02-4.16-0.01-6.24c-0.03-2.01-1.83-3.27-3.6-2.57c-1.08,0.43-1.65,1.41-1.65,2.85
	c0,11.11,0,22.21,0,33.32c0,0.19-0.01,0.38,0.01,0.57c0.17,1.84,1.98,2.98,3.63,2.26c1.16-0.51,1.63-1.47,1.63-2.7
	C51.79,72.88,51.79,67.27,51.79,61.66z M59.67,61.67c0,3.67,0,7.33,0,11c0,2-0.02,3.99,0.01,5.99c0.03,1.94,1.71,3.19,3.46,2.6
	c1.17-0.39,1.8-1.4,1.8-2.91c0-10.37,0-20.74,0-31.1c0-0.85,0.02-1.7-0.01-2.54c-0.03-1.2-0.71-2.17-1.74-2.54
	c-1.8-0.65-3.51,0.64-3.51,2.69C59.66,50.45,59.67,56.06,59.67,61.67z"/>
<path class="st0" d="M83.31,30.82c-0.61,1.47-1.7,1.99-3.3,1.99c-20.63-0.03-41.25-0.04-61.88,0.01c-1.9,0-3.27-1.28-3.14-3.11
	c0.11-1.63,0.01-3.28,0.03-4.93c0.03-3.52,2.92-6.42,6.44-6.44c4.81-0.02,9.63,0,14.58,0c0-0.83,0-1.64,0-2.45
	c0.01-4.14,2.7-7.34,6.77-8.01c0.37-0.06,0.76-0.06,1.15-0.06c3.47,0,6.95-0.01,10.42,0c4.45,0.01,7.9,3.46,7.92,7.9
	c0,0.84,0,1.68,0,2.61c0.37,0,0.66,0,0.95,0c4.43,0,8.86,0,13.3,0c3.33,0,5.75,1.89,6.62,5.14c0.03,0.1,0.1,0.18,0.15,0.28
	C83.31,26.11,83.31,28.46,83.31,30.82z M41.29,18.28c5.3,0,10.51,0,15.75,0c0-0.93,0.04-1.8-0.01-2.67
	c-0.09-1.44-1.17-2.51-2.62-2.52c-3.5-0.03-7-0.03-10.49,0c-1.42,0.01-2.51,1.06-2.61,2.45C41.24,16.42,41.29,17.33,41.29,18.28z"/>
</svg>
