<?xml version="1.0" encoding="utf-8"?>
<!-- Generator: Adobe Illustrator 28.2.0, SVG Export Plug-In . SVG Version: 6.00 Build 0)  -->
<svg version="1.1" xmlns="http://www.w3.org/2000/svg" xmlns:xlink="http://www.w3.org/1999/xlink" x="0px" y="0px"
	 viewBox="0 0 107.74 104.58" style="enable-background:new 0 0 107.74 104.58;" xml:space="preserve">
<style type="text/css">
	.st0{fill:#594156;}
</style>
<g id="BACKGROUND">
	<g>
		<path class="st0" d="M103.68,90.16c-2.1-0.01-4.2-0.05-6.3,0c-0.32,0.01-0.75,0.4-0.92,0.73c-1.69,3.31-3.36,6.63-4.99,9.97
			c-0.27,0.56-0.57,0.77-1.22,0.77c-23.65-0.02-47.29-0.02-70.94,0c-0.66,0-0.94-0.24-1.21-0.79c-1.61-3.28-3.29-6.53-4.87-9.82
			c-0.35-0.73-0.77-0.93-1.53-0.91c-1.9,0.05-3.8,0.02-5.75,0.02c0-1.93,0-3.76,0-5.69c0.31-0.02,0.61-0.05,0.92-0.05
			c32.02,0,64.03,0,96.05,0c0.25,0,0.51,0.03,0.76,0.05C103.68,86.34,103.68,88.25,103.68,90.16z"/>
		<path class="st0" d="M59.57,3.86c0.1,2.9-0.96,5.4-2.62,7.7c-1.19,1.66-1.52,3.51-0.98,5.44c0.27,0.95,0.81,1.86,1.36,2.7
			c1.09,1.68,1.91,3.44,2.15,5.44c0.06,0.53,0.07,1.06,0.11,1.65c-1.94,0-3.77,0-5.77,0c0.18-2.15-1.28-3.65-2.23-5.39
			c-2.21-4.05-2.18-8.14,0.04-12.19c0.32-0.58,0.7-1.14,1.08-1.69c0.76-1.11,1.15-2.33,1.12-3.68C55.75,3.86,57.66,3.86,59.57,3.86z
			"/>
		<path class="st0" d="M46.1,47.89c0.69-6.21,3.65-9.46,8.6-9.51c5.03-0.04,8.01,3.16,8.78,9.43C79.59,52.14,89.8,62.31,94.2,78.54
			c-26.32,0-52.45,0-78.58,0C17.34,68.09,26.99,52.27,46.1,47.89z"/>
		<path class="st0" d="M37.14,38.35c-1.55,0-3.36,0-5.46,0c0.24-1.33,0.31-2.64,0.74-3.82c0.5-1.35,1.25-2.63,2.02-3.87
			c1.6-2.56,1.66-5.09-0.03-7.59c-1.39-2.06-2.5-4.21-2.57-6.76c-0.01-0.19-0.02-0.38-0.01-0.57c0-0.09,0.05-0.18,0.09-0.32
			c1.83,0,3.66,0,5.65,0c-0.22,2.23,1.32,3.73,2.27,5.5c2.12,3.97,2.1,7.97-0.01,11.95c-0.28,0.53-0.7,1-0.95,1.54
			C38.29,35.63,37.77,36.9,37.14,38.35z"/>
		<path class="st0" d="M72,15.4c1.98,0,3.81,0,5.72,0c0.14,1.86-0.27,3.57-1.07,5.18c-0.47,0.93-1.07,1.8-1.62,2.7
			c-1.47,2.4-1.52,4.83,0.03,7.18c1.44,2.18,2.65,4.42,2.7,7.11c0,0.22,0,0.44,0,0.74c-1.9,0-3.76,0-5.72,0
			c0.13-2-1.08-3.44-2.01-5.02c-2.6-4.45-2.49-8.89,0.24-13.24C71.16,18.63,72.15,17.29,72,15.4z"/>
	</g>
</g>
<g id="OBJECTS">
</g>
<g id="TEXTURE">
</g>
<g id="DESIGNED_BY_FREEPIK">
</g>
</svg>
